<?xml version="1.0" encoding="utf-8"?>
<!-- Generator: Adobe Illustrator 16.0.0, SVG Export Plug-In . SVG Version: 6.00 Build 0)  -->
<!DOCTYPE svg PUBLIC "-//W3C//DTD SVG 1.1//EN" "http://www.w3.org/Graphics/SVG/1.1/DTD/svg11.dtd">
<svg version="1.1" xmlns="http://www.w3.org/2000/svg" xmlns:xlink="http://www.w3.org/1999/xlink" x="0px" y="0px"
	 width="702.256px" height="735.453px" viewBox="0 0 702.256 735.453" enable-background="new 0 0 702.256 735.453"
	 xml:space="preserve">
<g id="Layer_18" display="none">
	<rect x="-3.891" display="inline" width="706.146" height="735.453"/>
</g>
<g id="water_x5F_eclectricity_x5F_grid">
	<line fill="none" stroke="#66CCFF" stroke-miterlimit="10" x1="168.045" y1="323.123" x2="119.062" y2="201.572"/>
	<line fill="none" stroke="#66CCFF" stroke-miterlimit="10" x1="119.062" y1="201.572" x2="97.863" y2="150.023"/>
	<line fill="none" stroke="#FF9900" stroke-miterlimit="10" x1="171.34" y1="323.123" x2="122.357" y2="201.572"/>
	<line fill="none" stroke="#FF9900" stroke-miterlimit="10" x1="122.357" y1="201.572" x2="101.158" y2="150.023"/>
	<line fill="none" stroke="#66CCFF" stroke-miterlimit="10" x1="226.201" y1="193.325" x2="239.394" y2="139.06"/>
	<path fill="none" stroke="#FF9900" stroke-miterlimit="10" d="M224.567,533.11c40.671-9.593,76.484-33.574,100.843-67.527
		c32.539-45.356,41.184-103.97,23.124-156.79s-60.78-93.871-114.277-109.812c-37.382-11.138-77.898-9.239-114.083,5.348"/>
	<path fill="none" stroke="#66CCFF" stroke-linecap="round" stroke-linejoin="round" d="M225.256,536.03
		c40.929-9.653,77.549-33.791,102.592-68.698c33.172-46.239,41.936-105.663,23.525-159.51
		c-18.41-53.846-61.723-95.466-116.26-111.716c-38.641-11.514-79.539-9.283-116.061,5.44"/>
</g>
<g id="Layer_01">
</g>
<g id="grid" display="none">
</g>
<g id="text_guide" display="none">
</g>
<g id="grid_2" display="none">
</g>
<g id="Layer_13">
</g>
<g id="israeli">
	<circle fill="#0033CC" cx="298.813" cy="498.877" r="18.718"/>
	<line fill="#0033CC" x1="116.271" y1="94.421" x2="116.271" y2="94.421"/>
	<circle fill="#0033CC" cx="184.862" cy="364.779" r="44.923"/>
	<circle fill="#0033CC" cx="298.729" cy="498.779" r="18.718"/>
</g>
<g id="towns">
	<circle fill="#CC0066" cx="348.872" cy="428.561" r="18.718"/>
	<circle fill="#CC0066" cx="225.604" cy="535.973" r="18.718"/>
	<circle fill="#CC0066" cx="338.372" cy="278.745" r="18.718"/>
	<circle fill="#CC0066" cx="338.371" cy="278.745" r="18.718"/>
	<circle fill="#CC0066" cx="285.753" cy="220.599" r="18.718"/>
	<circle fill="#CC0066" cx="359.841" cy="346.093" r="18.718"/>
	<circle fill="#CC0066" cx="359.842" cy="346.094" r="18.718"/>
	<circle fill="#CC0066" cx="205.61" cy="190.032" r="18.717"/>
	<circle fill="#CC0066" cx="118.985" cy="201.601" r="18.718"/>
	<circle fill="#CC0066" cx="225.604" cy="535.973" r="18.718"/>
	<circle fill="#CC0066" cx="118.986" cy="201.601" r="18.719"/>
	<circle fill="#CC0066" cx="205.61" cy="190.032" r="18.718"/>
	<circle fill="#CC0066" cx="285.752" cy="220.599" r="18.719"/>
	<circle fill="#CC0066" cx="348.872" cy="428.561" r="18.717"/>
</g>
<g id="villages">
	<path opacity="0.3" fill="#FF3366" d="M578.029,381.476c-2.895-4.175-1.758-9.839,2.537-12.653
		c4.295-2.812,10.125-1.708,13.02,2.467s1.758,9.84-2.537,12.652C586.752,386.754,580.924,385.65,578.029,381.476z"/>
	<circle opacity="0.3" fill="#FF3366" cx="399.491" cy="557.245" r="9.358"/>
	<circle opacity="0.3" fill="#FF3366" cx="371.566" cy="584.406" r="9.36"/>
	<circle opacity="0.3" fill="#FF3366" cx="309.953" cy="560.319" r="9.36"/>
	<circle opacity="0.3" fill="#FF3366" cx="357.652" cy="519.788" r="9.359"/>
	<circle opacity="0.3" fill="#FF3366" cx="335.175" cy="541.669" r="9.359"/>
	<circle opacity="0.3" fill="#FF3366" cx="401.04" cy="449.346" r="9.359"/>
	<circle opacity="0.3" fill="#FF3366" cx="41.553" cy="114.809" r="9.36"/>
	<circle opacity="0.3" fill="#FF3366" cx="76.806" cy="97.322" r="9.359"/>
	<circle opacity="0.3" fill="#FF3366" cx="113.811" cy="85.253" r="9.359"/>
	<circle opacity="0.3" fill="#FF3366" cx="127.779" cy="139.779" r="9.359"/>
	<circle fill="#FF3366" cx="97.965" cy="149.529" r="9.358"/>
	<circle opacity="0.3" fill="#FF3366" cx="69.737" cy="163.211" r="9.36"/>
	<circle opacity="0.3" fill="#FF3366" cx="410.468" cy="419.427" r="9.359"/>
	<circle opacity="0.3" fill="#FF3366" cx="350.141" cy="128.581" r="9.359"/>
	<circle opacity="0.3" fill="#FF3366" cx="238.603" cy="590.602" r="9.359"/>
	<circle opacity="0.3" fill="#FF3366" cx="418.575" cy="111.811" r="9.36"/>
	<circle opacity="0.3" fill="#FF3366" cx="382.424" cy="82.65" r="9.359"/>
	<circle opacity="0.3" fill="#FF3366" cx="182.782" cy="132.649" r="9.359"/>
	<circle opacity="0.3" fill="#FF3366" cx="342.498" cy="58.469" r="9.359"/>
	<circle opacity="0.3" fill="#FF3366" cx="239.272" cy="139.118" r="9.359"/>
	<circle opacity="0.3" fill="#FF3366" cx="212.23" cy="134.27" r="9.358"/>
	<circle opacity="0.3" fill="#FF3366" cx="380.58" cy="152.938" r="9.359"/>
	<circle opacity="0.3" fill="#FF3366" cx="316.787" cy="108.697" r="9.359"/>
	<path opacity="0.3" fill="#FF3366" d="M334.391,199.151c-2.697-4.409-1.309-10.17,3.102-12.866
		c4.408-2.696,10.17-1.308,12.865,3.102c2.697,4.41,1.309,10.171-3.1,12.867C342.846,204.95,337.086,203.562,334.391,199.151z"/>
	<circle opacity="0.3" fill="#FF3366" cx="465.202" cy="432.9" r="9.359"/>
	<circle opacity="0.3" fill="#FF3366" cx="291.09" cy="158.383" r="9.359"/>
	<circle opacity="0.3" fill="#FF3366" cx="453.474" cy="469.802" r="9.359"/>
	<circle opacity="0.3" fill="#FF3366" cx="418.422" cy="371.438" r="9.359"/>
	<circle opacity="0.3" fill="#FF3366" cx="317.946" cy="174.589" r="9.36"/>
	<path opacity="0.3" fill="#FF3366" d="M465.205,377.561c-2.896-4.174-1.76-9.84,2.537-12.652
		c4.295-2.812,10.123-1.709,13.018,2.466s1.76,9.84-2.537,12.652C473.928,382.839,468.1,381.735,465.205,377.561z"/>
	<circle opacity="0.3" fill="#FF3366" cx="268.128" cy="581.46" r="9.359"/>
	<path opacity="0.3" fill="#FF3366" d="M521.172,379.934c-2.895-4.176-1.758-9.84,2.537-12.652s10.123-1.709,13.02,2.466
		c2.895,4.174,1.758,9.839-2.537,12.651C529.895,385.212,524.066,384.107,521.172,379.934z"/>
	<circle opacity="0.3" fill="#FF3366" cx="207.204" cy="595.831" r="9.359"/>
	<circle opacity="0.3" fill="#FF3366" cx="387.583" cy="251.695" r="9.359"/>
	<circle opacity="0.3" fill="#FF3366" cx="415.441" cy="340.156" r="9.359"/>
	<circle opacity="0.3" fill="#FF3366" cx="573.677" cy="268.768" r="9.359"/>
	<circle opacity="0.3" fill="#FF3366" cx="471.387" cy="334.146" r="9.359"/>
	<circle opacity="0.3" fill="#FF3366" cx="527.497" cy="328.375" r="9.358"/>
	<circle opacity="0.3" fill="#FF3366" cx="583.858" cy="322.061" r="9.359"/>
	<circle opacity="0.3" fill="#FF3366" cx="387.663" cy="477.719" r="9.359"/>
	<circle opacity="0.3" fill="#FF3366" cx="408.285" cy="309.637" r="9.359"/>
	<circle opacity="0.3" fill="#FF3366" cx="464.775" cy="295.811" r="9.359"/>
	<circle opacity="0.3" fill="#FF3366" cx="519.281" cy="282.247" r="9.359"/>
	<circle opacity="0.3" fill="#FF3366" cx="436.806" cy="504.973" r="9.359"/>
	<circle opacity="0.3" fill="#FF3366" cx="212.678" cy="651.744" r="9.36"/>
	<circle opacity="0.3" fill="#FF3366" cx="308.517" cy="686.054" r="9.359"/>
	<circle opacity="0.3" fill="#FF3366" cx="574.881" cy="459.462" r="9.36"/>
	<circle opacity="0.3" fill="#FF3366" cx="485.764" cy="532.36" r="9.358"/>
	<circle opacity="0.3" fill="#FF3366" cx="288.27" cy="633.878" r="9.359"/>
	<circle opacity="0.3" fill="#FF3366" cx="251.139" cy="645.455" r="9.359"/>
	<circle opacity="0.3" fill="#FF3366" cx="505.487" cy="490.299" r="9.359"/>
	<circle opacity="0.3" fill="#FF3366" cx="519.495" cy="445.865" r="9.359"/>
</g>
<g id="recognition_2">
	<circle fill="#FFCC33" cx="185.122" cy="365.725" r="18.399"/>
	<path fill="#FFCC33" d="M234.852,536.314c0-5.081-4.121-9.2-9.199-9.2c-5.082,0-9.201,4.119-9.201,9.2
		c0,5.08,4.119,9.199,9.201,9.199C230.73,545.514,234.852,541.395,234.852,536.314z"/>
	<path fill="#FFCC33" d="M308.014,498.878c0-5.081-4.121-9.2-9.199-9.2c-5.082,0-9.201,4.119-9.201,9.2
		c0,5.08,4.119,9.199,9.201,9.199C303.893,508.077,308.014,503.958,308.014,498.878z"/>
	<circle fill="#FFCC33" cx="349.203" cy="428.561" r="9.199"/>
	<circle fill="#FFCC33" cx="359.842" cy="346.094" r="9.199"/>
	<circle fill="#FFCC33" cx="338.371" cy="278.745" r="9.199"/>
	<circle fill="#FFCC33" cx="285.753" cy="220.599" r="9.2"/>
	<path fill="#FFCC33" d="M214.188,190.033c0-5.081-4.121-9.2-9.199-9.2c-5.082,0-9.201,4.119-9.201,9.2
		c0,5.08,4.119,9.199,9.201,9.199C210.066,199.232,214.188,195.113,214.188,190.033z"/>
	<circle fill="#FFCC33" cx="119.062" cy="201.601" r="9.199"/>
	<circle fill="#FFCC33" cx="97.965" cy="149.53" r="5.699"/>
	<circle opacity="0.3" fill="#FFCC33" cx="291.089" cy="158.384" r="5.7"/>
	<circle opacity="0.3" fill="#FFCC33" cx="408.286" cy="309.638" r="5.7"/>
	<circle opacity="0.3" fill="#FFCC33" cx="415.442" cy="340.156" r="5.7"/>
	<circle opacity="0.3" fill="#FFCC33" cx="418.423" cy="371.438" r="5.7"/>
	<circle opacity="0.3" fill="#FFCC33" cx="410.626" cy="419.427" r="5.7"/>
	<circle opacity="0.3" fill="#FFCC33" cx="401.038" cy="449.346" r="5.7"/>
	<circle opacity="0.3" fill="#FFCC33" cx="387.663" cy="477.72" r="5.7"/>
	<circle opacity="0.3" fill="#FFCC33" cx="464.651" cy="295.812" r="5.7"/>
	<circle opacity="0.3" fill="#FFCC33" cx="309.952" cy="560.319" r="5.7"/>
	<circle opacity="0.3" fill="#FFCC33" cx="316.786" cy="108.697" r="5.7"/>
</g>
<g id="no_recognition">
	<circle fill="#FFFFFF" cx="225.65" cy="536.313" r="3.292"/>
	<circle fill="#FFFFFF" cx="298.813" cy="498.876" r="3.293"/>
	<circle fill="#FFFFFF" cx="349.203" cy="428.56" r="3.292"/>
	<circle fill="#FFFFFF" cx="359.842" cy="346.093" r="3.292"/>
	<circle fill="#FFFFFF" cx="338.371" cy="278.744" r="3.292"/>
	<circle fill="#FFFFFF" cx="285.752" cy="220.598" r="3.292"/>
	<circle fill="#FFFFFF" cx="204.987" cy="190.032" r="3.293"/>
	<circle fill="#FFFFFF" cx="119.062" cy="201.599" r="3.292"/>
	<circle opacity="0.3" fill="#FFFFFF" cx="335.175" cy="541.669" r="2.34"/>
	<circle opacity="0.3" fill="#FFFFFF" cx="357.651" cy="519.787" r="2.34"/>
	<circle opacity="0.3" fill="#FFFFFF" cx="309.953" cy="560.319" r="2.339"/>
	<circle opacity="0.3" fill="#FFFFFF" cx="399.491" cy="557.245" r="2.34"/>
	<circle opacity="0.3" fill="#FFFFFF" cx="371.566" cy="584.407" r="2.339"/>
	<circle opacity="0.3" fill="#FFFFFF" cx="401.039" cy="449.345" r="2.339"/>
	<circle opacity="0.3" fill="#FFFFFF" cx="410.467" cy="419.427" r="2.339"/>
	<circle opacity="0.3" fill="#FFFFFF" cx="465.202" cy="432.899" r="2.34"/>
	<circle opacity="0.3" fill="#FFFFFF" cx="453.474" cy="469.802" r="2.34"/>
	<circle opacity="0.3" fill="#FFFFFF" cx="436.806" cy="504.971" r="2.34"/>
	<circle opacity="0.3" fill="#FFFFFF" cx="519.495" cy="445.866" r="2.34"/>
	<circle opacity="0.3" fill="#FFFFFF" cx="505.487" cy="490.298" r="2.34"/>
	<circle opacity="0.3" fill="#FFFFFF" cx="485.765" cy="532.361" r="2.34"/>
	<circle opacity="0.3" fill="#FFFFFF" cx="574.881" cy="459.462" r="2.339"/>
	<circle opacity="0.3" fill="#FFFFFF" cx="387.663" cy="477.72" r="2.34"/>
	<circle opacity="0.3" fill="#FFFFFF" cx="238.603" cy="590.602" r="2.339"/>
	<circle opacity="0.3" fill="#FFFFFF" cx="268.127" cy="581.46" r="2.34"/>
	<circle opacity="0.3" fill="#FFFFFF" cx="207.204" cy="595.83" r="2.339"/>
	<circle opacity="0.3" fill="#FFFFFF" cx="212.678" cy="651.744" r="2.34"/>
	<circle opacity="0.3" fill="#FFFFFF" cx="251.139" cy="645.455" r="2.34"/>
	<circle opacity="0.3" fill="#FFFFFF" cx="288.27" cy="633.878" r="2.34"/>
	<circle opacity="0.3" fill="#FFFFFF" cx="583.858" cy="322.061" r="2.34"/>
	<circle opacity="0.3" fill="#FFFFFF" cx="573.677" cy="268.768" r="2.34"/>
	<circle opacity="0.3" fill="#FFFFFF" cx="308.517" cy="686.054" r="2.339"/>
	<circle opacity="0.3" fill="#FFFFFF" cx="387.583" cy="251.695" r="2.34"/>
	<circle opacity="0.3" fill="#FFFFFF" cx="519.281" cy="282.247" r="2.34"/>
	<circle opacity="0.3" fill="#FFFFFF" cx="464.774" cy="295.811" r="2.34"/>
	<circle opacity="0.3" fill="#FFFFFF" cx="408.286" cy="309.638" r="2.34"/>
	<circle opacity="0.3" fill="#FFFFFF" cx="527.497" cy="328.376" r="2.339"/>
	<circle opacity="0.3" fill="#FFFFFF" cx="471.387" cy="334.146" r="2.34"/>
	<circle opacity="0.3" fill="#FFFFFF" cx="415.442" cy="340.156" r="2.339"/>
	<path opacity="0.3" fill="#FFFFFF" d="M583.863,377.655c-0.725-1.043-0.439-2.46,0.633-3.163c1.074-0.703,2.533-0.428,3.256,0.617
		c0.723,1.043,0.439,2.459-0.635,3.162C586.043,378.976,584.586,378.699,583.863,377.655z"/>
	<path opacity="0.3" fill="#FFFFFF" d="M527.006,376.113c-0.723-1.043-0.439-2.46,0.633-3.163c1.074-0.702,2.531-0.427,3.256,0.616
		c0.725,1.044,0.439,2.46-0.635,3.163C529.186,377.434,527.729,377.156,527.006,376.113z"/>
	<path opacity="0.3" fill="#FFFFFF" d="M471.037,373.74c-0.723-1.043-0.439-2.459,0.635-3.163c1.074-0.703,2.531-0.427,3.254,0.616
		c0.725,1.045,0.441,2.461-0.635,3.164C473.219,375.061,471.762,374.785,471.037,373.74z"/>
	<circle opacity="0.3" fill="#FFFFFF" cx="418.422" cy="371.438" r="2.339"/>
	<circle opacity="0.3" fill="#FFFFFF" cx="317.947" cy="174.59" r="2.34"/>
	<circle opacity="0.3" fill="#FFFFFF" cx="291.09" cy="158.382" r="2.34"/>
	<circle opacity="0.3" fill="#FFFFFF" cx="342.374" cy="194.27" r="2.339"/>
	<circle opacity="0.3" fill="#FFFFFF" cx="316.787" cy="108.697" r="2.34"/>
	<circle opacity="0.3" fill="#FFFFFF" cx="380.58" cy="152.938" r="2.34"/>
	<circle opacity="0.3" fill="#FFFFFF" cx="342.498" cy="58.469" r="2.34"/>
	<circle opacity="0.3" fill="#FFFFFF" cx="382.424" cy="82.65" r="2.34"/>
	<circle opacity="0.3" fill="#FFFFFF" cx="418.574" cy="111.812" r="2.34"/>
	<circle opacity="0.3" fill="#FFFFFF" cx="350.141" cy="128.581" r="2.34"/>
	<circle opacity="0.3" fill="#FFFFFF" cx="69.736" cy="163.211" r="2.34"/>
	<circle fill="#FFFFFF" cx="97.965" cy="149.53" r="2.34"/>
	<circle opacity="0.3" fill="#FFFFFF" cx="127.779" cy="139.779" r="2.34"/>
	<circle opacity="0.3" fill="#FFFFFF" cx="113.811" cy="85.253" r="2.34"/>
	<circle opacity="0.3" fill="#FFFFFF" cx="76.807" cy="97.322" r="2.34"/>
	<circle opacity="0.3" fill="#FFFFFF" cx="41.554" cy="114.809" r="2.34"/>
	<circle fill="#FFFFFF" cx="185.123" cy="365.725" r="6.234"/>
	<circle opacity="0.3" fill="#FFFFFF" cx="212.23" cy="134.27" r="2.34"/>
	<circle opacity="0.3" fill="#FFFFFF" cx="239.271" cy="139.118" r="2.34"/>
	<circle opacity="0.3" fill="#FFFFFF" cx="182.782" cy="132.649" r="2.339"/>
</g>
<g id="recognition">
</g>
<g id="for_scale">
</g>
<g id="names">
	<g>
		<g>
			
				<text transform="matrix(0.1015 0.9948 -0.9948 0.1015 215.6123 661.5225)" fill="#666666" font-family="'Inconsolata-Bold'" font-size="6">al-Maḏbaḥ</text>
		</g>
	</g>
	<g>
		<g>
			
				<text transform="matrix(0.2572 0.9664 -0.9664 0.2572 255.5273 655.3906)" fill="#666666" font-family="'Inconsolata-Bold'" font-size="6">Ṣwāwīn</text>
		</g>
	</g>
	<g>
		<g>
			<text transform="matrix(0.2572 0.9664 -0.9664 0.2572 242.9883 602.376)"><tspan x="0" y="0" fill="#666666" font-family="'Inconsolata-Bold'" font-size="6">Khašim </tspan><tspan x="0" y="7.2" fill="#666666" font-family="'Inconsolata-Bold'" font-size="6">Zannih</tspan></text>
		</g>
	</g>
	<g>
		<g>
			
				<text transform="matrix(0.2339 0.9723 -0.9723 0.2339 210.1328 462.7471)" fill="#666666" font-family="'Inconsolata-Bold'" font-size="8">Šgīb as-Salām</text>
		</g>
	</g>
	<g>
		<g>
			<text transform="matrix(0.364 0.9314 -0.9314 0.364 313.9668 694.5635)"><tspan x="0" y="0" fill="#666666" font-family="'Inconsolata-Bold'" font-size="6">Wādi </tspan><tspan x="0.001" y="7.199" fill="#666666" font-family="'Inconsolata-Bold'" font-size="6">al-Mšaš</tspan></text>
		</g>
	</g>
	<g>
		<g>
			<text transform="matrix(0.364 0.9314 -0.9314 0.364 293.7197 642.3877)"><tspan x="0" y="0" fill="#666666" font-family="'Inconsolata-Bold'" font-size="6">Wādi </tspan><tspan x="0" y="7.2" fill="#666666" font-family="'Inconsolata-Bold'" font-size="6">an-Naʿam</tspan><tspan x="24" y="7.2" fill="#666666" font-family="'Inconsolata-Bold'" font-size="6" letter-spacing="16">	</tspan></text>
		</g>
	</g>
	<g>
		<g>
			
				<text transform="matrix(0.5509 0.8346 -0.8346 0.5509 317.0566 567.6357)" fill="#666666" font-family="'Inconsolata-Bold'" font-size="6">Bīr Haddāj</text>
		</g>
	</g>
	<g>
		<g>
			
				<text transform="matrix(0.6478 0.7618 -0.7618 0.6478 379.3916 591.4502)" fill="#666666" font-family="'Inconsolata-Bold'" font-size="6">Nafḥah</text>
		</g>
	</g>
	<g>
		<g>
			
				<text transform="matrix(0.6478 0.7618 -0.7618 0.6478 342.9727 547.7354)" fill="#666666" font-family="'Inconsolata-Bold'" font-size="6">Rachama</text>
		</g>
	</g>
	<g>
		<g>
			
				<text transform="matrix(0.748 0.6637 -0.6637 0.748 408.1016 562.3467)" fill="#666666" font-family="'Inconsolata-Bold'" font-size="6">Wādi Arīḥā</text>
		</g>
	</g>
	<g>
		<g>
			
				<text transform="matrix(0.876 0.4823 -0.4823 0.876 495.4395 535.6572)" fill="#666666" font-family="'Inconsolata-Bold'" font-size="6">al-Gaṭāmāt</text>
		</g>
	</g>
	<g>
		<g>
			
				<text transform="matrix(0.876 0.4823 -0.4823 0.876 446.4824 508.2686)" fill="#666666" font-family="'Inconsolata-Bold'" font-size="6">al-Bḥīrah</text>
		</g>
	</g>
	<g>
		<g>
			
				<text transform="matrix(0.9309 0.3653 -0.3653 0.9309 515.6367 492.458)" fill="#666666" font-family="'Inconsolata-Bold'" font-size="6">as-Sdīr</text>
		</g>
	</g>
	<g>
		<g>
			
				<text transform="matrix(0.9309 0.3653 -0.3653 0.9309 463.623 471.9609)" fill="#666666" font-family="'Inconsolata-Bold'" font-size="6">al-Mṭahhar</text>
		</g>
	</g>
	<g>
		<g>
			<text transform="matrix(0.9309 0.3653 -0.3653 0.9309 411.0703 451.7959)"><tspan x="0" y="0" fill="#666666" font-family="'Inconsolata-Bold'" font-size="6">Gaṣir </tspan><tspan x="0" y="7.199" fill="#666666" font-family="'Inconsolata-Bold'" font-size="6">as-Sirr</tspan></text>
		</g>
	</g>
	<g>
		<g>
			
				<text transform="matrix(0.9728 0.2316 -0.2316 0.9728 585.3477 459.7979)" fill="#666666" font-family="'Inconsolata-Bold'" font-size="6">ʿAbdih</text>
		</g>
	</g>
	<g>
		<g>
			
				<text transform="matrix(0.9728 0.2316 -0.2316 0.9728 529.9619 446.7588)" fill="#666666" font-family="'Inconsolata-Bold'" font-size="6">Umm Rattām</text>
		</g>
	</g>
	<g>
		<g>
			
				<text transform="matrix(0.9728 0.2316 -0.2316 0.9728 475.668 433.792)" fill="#666666" font-family="'Inconsolata-Bold'" font-size="6">Bīr al-Mšāš</text>
		</g>
	</g>
	<g>
		<g>
			
				<text transform="matrix(0.9708 -0.2399 0.2399 0.9708 583.9766 265.5879)" fill="#666666" font-family="'Inconsolata-Bold'" font-size="6">al-Bāṭ</text>
		</g>
	</g>
	<g>
		<g>
			<text transform="matrix(0.9708 -0.2399 0.2399 0.9708 529.5801 279.0664)"><tspan x="0" y="0" fill="#666666" font-family="'Inconsolata-Bold'" font-size="6">Bāṭ </tspan><tspan x="0" y="7.201" fill="#666666" font-family="'Inconsolata-Bold'" font-size="6">aṣ-Ṣarāyʿih</tspan></text>
		</g>
	</g>
	<g>
		<g>
			
				<text transform="matrix(0.9708 -0.2399 0.2399 0.9708 475.0723 292.6299)" fill="#666666" font-family="'Inconsolata-Bold'" font-size="6">Mūladaʾh</text>
		</g>
	</g>
	<g>
		<g>
			
				<text transform="matrix(0.9931 -0.1176 0.1176 0.9931 594.3027 320.4424)" fill="#666666" font-family="'Inconsolata-Bold'" font-size="6">Tal al-Malaḥ</text>
		</g>
	</g>
	<g>
		<g>
			
				<text transform="matrix(0.9931 -0.1176 0.1176 0.9931 537.9414 326.7568)" fill="#666666" font-family="'Inconsolata-Bold'" font-size="6">al-Ġazzah</text>
		</g>
	</g>
	<g>
		<g>
			
				<text transform="matrix(0.9931 -0.1176 0.1176 0.9931 481.832 332.5283)" fill="#666666" font-family="'Inconsolata-Bold'" font-size="6">az-Zaʿarūrah</text>
		</g>
	</g>
	<g>
		<g>
			
				<text transform="matrix(0.9931 -0.1176 0.1176 0.9931 425.8877 338.5391)" fill="#666666" font-family="'Inconsolata-Bold'" font-size="6">Kuḥlih</text>
		</g>
	</g>
	<g>
		<g>
			
				<text transform="matrix(0.364 0.9314 -0.9314 0.364 273.5781 591.4482)" fill="#666666" font-family="'Inconsolata-Bold'" font-size="6">as-Sirr</text>
		</g>
	</g>
	<g>
		<g>
			
				<text transform="matrix(0.1015 0.9948 -0.9948 0.1015 210.1387 605.6084)" fill="#666666" font-family="'Inconsolata-Bold'" font-size="6">az-Zarnūg</text>
		</g>
	</g>
	<g>
		<g>
			
				<text transform="matrix(0.6478 0.7618 -0.7618 0.6478 268.2656 459.4844)" fill="#666666" font-family="'Inconsolata-Bold'" font-size="8">Yeroham</text>
		</g>
	</g>
	<g>
		<g>
			
				<text transform="matrix(0.748 0.6637 -0.6637 0.748 366.2637 524.8896)" fill="#666666" font-family="'Inconsolata-Bold'" font-size="6">al-Baggār</text>
		</g>
	</g>
	<g>
		<g>
			
				<text transform="matrix(0.876 0.4823 -0.4823 0.876 397.3398 481.0166)" fill="#666666" font-family="'Inconsolata-Bold'" font-size="6">Abu Grīnāt</text>
		</g>
	</g>
	<g>
		<g>
			<text transform="matrix(0.9309 0.3653 -0.3653 0.9309 298.0459 405.9551)"><tspan x="0" y="0" fill="#666666" font-family="'Inconsolata-Bold'" font-size="8">ʿArʿarah </tspan><tspan x="0" y="9.6" fill="#666666" font-family="'Inconsolata-Bold'" font-size="8">an-Nagab</tspan></text>
		</g>
	</g>
	<g>
		<g>
			<text transform="matrix(0.9728 0.2316 -0.2316 0.9728 420.9336 420.3193)"><tspan x="0" y="0" fill="#666666" font-family="'Inconsolata-Bold'" font-size="6">Abu Tlūl </tspan><tspan x="0" y="7.2" fill="#666666" font-family="'Inconsolata-Bold'" font-size="6">aš-Šahbī</tspan></text>
		</g>
	</g>
	<g>
		<g>
			
				<text transform="matrix(0.9996 0.0285 -0.0285 0.9996 428.9746 371.0869)" fill="#666666" font-family="'Inconsolata-Bold'" font-size="6">Makḥūl</text>
		</g>
	</g>
	<g>
		<g>
			
				<text transform="matrix(0.9996 0.0285 -0.0285 0.9996 483.4746 372.251)" fill="#666666" font-family="'Inconsolata-Bold'" font-size="6">as-Sirrah</text>
		</g>
	</g>
	<g>
		<g>
			
				<text transform="matrix(0.9996 0.0285 -0.0285 0.9996 539.9746 373.9844)" fill="#666666" font-family="'Inconsolata-Bold'" font-size="6">al-Furʿah</text>
		</g>
	</g>
	<g>
		<g>
			
				<text transform="matrix(0.9996 0.0285 -0.0285 0.9996 597.2246 375.1143)" fill="#666666" font-family="'Inconsolata-Bold'" font-size="6">Tal ʿArād</text>
		</g>
	</g>
	<g>
		<g>
			
				<text transform="matrix(0.9943 -0.1062 0.1062 0.9943 313.9229 349.3857)" fill="#666666" font-family="'Inconsolata-Bold'" font-size="8">Ksīfih</text>
		</g>
	</g>
	<g>
		<g>
			
				<text transform="matrix(0.9708 -0.2399 0.2399 0.9708 418.585 306.458)" fill="#666666" font-family="'Inconsolata-Bold'" font-size="6">Drījāt</text>
		</g>
	</g>
	<g>
		<g>
			<text transform="matrix(0.8732 -0.4874 0.4874 0.8732 397.7109 245.292)"><tspan x="0" y="0" fill="#666666" font-family="'Inconsolata-Bold'" font-size="6">Bīr al-Ḥamām</tspan><tspan x="36" y="0.001" fill="#666666" font-family="'Inconsolata-Bold'" font-size="6" letter-spacing="4">	</tspan></text>
		</g>
	</g>
	<g>
		<g>
			
				<text transform="matrix(0.8732 -0.4874 0.4874 0.8732 280.1152 309.6172)" fill="#666666" font-family="'Inconsolata-Bold'" font-size="8">Tal as-Sabaʿ</text>
		</g>
	</g>
	<g>
		<g>
			
				<text transform="matrix(0.6783 -0.7347 0.7347 0.6783 425.4277 103.4707)" fill="#666666" font-family="'Inconsolata-Bold'" font-size="6">ʿAtīr</text>
		</g>
	</g>
	<g>
		<g>
			<text transform="matrix(0.6783 -0.7347 0.7347 0.6783 385.5986 143.5781)"><tspan x="0" y="0" fill="#666666" font-family="'Inconsolata-Bold'" font-size="6">Umm </tspan><tspan x="0" y="7.2" fill="#666666" font-family="'Inconsolata-Bold'" font-size="6">al-Ḥīrān</tspan></text>
		</g>
	</g>
	<g>
		<g>
			
				<text transform="matrix(0.6783 -0.7347 0.7347 0.6783 349.2275 185.9287)" fill="#666666" font-family="'Inconsolata-Bold'" font-size="6">Saʿwah</text>
		</g>
	</g>
	<g>
		<g>
			
				<text transform="matrix(0.5709 -0.821 0.821 0.5709 388.0439 73.4814)" fill="#666666" font-family="'Inconsolata-Bold'" font-size="6">al-Ġarrah</text>
		</g>
	</g>
	<g>
		<g>
			
				<text transform="matrix(0.5709 -0.821 0.821 0.5709 323.5664 165.4219)" fill="#666666" font-family="'Inconsolata-Bold'" font-size="6">al-Grīn</text>
		</g>
	</g>
	<g>
		<g>
			
				<text transform="matrix(-0.4985 -0.8669 0.8669 -0.4985 63.875 154.1738)" fill="#666666" font-family="'Inconsolata-Bold'" font-size="6">al-ʿArāgīb</text>
		</g>
	</g>
	<g>
		<g>
			<text transform="matrix(0.5606 -0.8281 0.8281 0.5606 354.25 118.1357)"><tspan x="0" y="0" fill="#666666" font-family="'Inconsolata-Bold'" font-size="6">Khirbit</tspan><tspan x="0" y="7.2" fill="#666666" font-family="'Inconsolata-Bold'" font-size="6">al-Watan</tspan></text>
		</g>
	</g>
	<g>
		<g>
			
				<text transform="matrix(-0.4985 -0.8669 0.8669 -0.4985 35.6914 105.7715)" fill="#666666" font-family="'Inconsolata-Bold'" font-size="6">Ẓḥayyih</text>
		</g>
	</g>
	<g>
		<g>
			
				<text transform="matrix(0.5709 -0.821 0.821 0.5709 259.5713 254.0381)" fill="#666666" font-family="'Inconsolata-Bold'" font-size="8">Ḥūrah</text>
		</g>
	</g>
	<g>
		<g>
			<text transform="matrix(-0.377 -0.9262 0.9262 -0.377 91.832 139.8047)"><tspan x="0" y="0" fill="#666666" font-family="'Inconsolata-Bold'" font-size="6">Tarābīn </tspan><tspan x="0" y="7.199" fill="#666666" font-family="'Inconsolata-Bold'" font-size="6">aṣ-Ṣāniʿ</tspan></text>
		</g>
	</g>
	<g>
		<g>
			
				<text transform="matrix(-0.377 -0.9262 0.9262 -0.377 72.1641 87.5977)" fill="#666666" font-family="'Inconsolata-Bold'" font-size="6">Umm Nmīlah</text>
		</g>
	</g>
	<g>
		<g>
			
				<text transform="matrix(-0.2487 -0.9686 0.9686 -0.2487 124.5381 129.4932)" fill="#666666" font-family="'Inconsolata-Bold'" font-size="6">al-Bāṭil</text>
		</g>
	</g>
	<g>
		<g>
			<text transform="matrix(-0.2487 -0.9686 0.9686 -0.2487 109.7344 74.9688)"><tspan x="0" y="0" fill="#666666" font-family="'Inconsolata-Bold'" font-size="6">Khirbit</tspan><tspan x="0" y="7.2" fill="#666666" font-family="'Inconsolata-Bold'" font-size="6">Zabbālih</tspan></text>
		</g>
	</g>
	<g>
		<g>
			
				<text transform="matrix(-0.377 -0.9262 0.9262 -0.377 134.9805 243.9678)" fill="#666666" font-family="'Inconsolata-Bold'" font-size="8">Rahaṭ</text>
		</g>
	</g>
	<g>
		<g>
			
				<text transform="matrix(0.455 -0.8905 0.8905 0.455 346.8252 48.6377)" fill="#666666" font-family="'Inconsolata-Bold'" font-size="6">al-Mkīmin</text>
		</g>
	</g>
	<g>
		<g>
			<text transform="matrix(1 -0.002 0.002 1 72.1914 369.3613)" fill="#666666" font-family="'Inconsolata-Bold'" font-size="10">Be&apos;er Sheva</text>
		</g>
	</g>
	<g>
		<g>
			
				<text transform="matrix(0.455 -0.8905 0.8905 0.455 321.1152 98.8643)" fill="#666666" font-family="'Inconsolata-Bold'" font-size="6">Umm Batīn</text>
		</g>
	</g>
	<g>
		<g>
			
				<text transform="matrix(0.455 -0.8905 0.8905 0.455 295.417 148.5518)" fill="#666666" font-family="'Inconsolata-Bold'" font-size="6">as-Sayyid</text>
		</g>
	</g>
	<g>
		<g>
			
				<text transform="matrix(0.1153 -0.9933 0.9933 0.1153 195.7988 256.0166)" fill="#666666" font-family="'Inconsolata-Bold'" font-size="8">al-Lagiyyih</text>
		</g>
	</g>
	<g>
		<g>
			
				<text transform="matrix(-0.0186 -0.9998 0.9998 -0.0186 182.2168 121.9062)" fill="#666666" font-family="'Inconsolata-Bold'" font-size="6">ʿAwajān</text>
		</g>
	</g>
	<g>
		<g>
			
				<text transform="matrix(0.2316 -0.9728 0.9728 0.2316 241.6152 127.3389)" fill="#666666" font-family="'Inconsolata-Bold'" font-size="6">al-Msāʿadiyyah</text>
		</g>
	</g>
	<g>
		<g>
			<text transform="matrix(0.1153 -0.9933 0.9933 0.1153 211.3984 122.5635)"><tspan x="0" y="0" fill="#666666" font-family="'Inconsolata-Bold'" font-size="6">Ṭwayyil Abu</tspan><tspan x="0" y="7.2" fill="#666666" font-family="'Inconsolata-Bold'" font-size="6">Jarwal</tspan></text>
		</g>
	</g>
</g>
<g id="Layer_1">
</g>
<g id="Layer_2">
</g>
<g id="Layer_3">
</g>
</svg>
