<?xml version="1.0" encoding="utf-8"?>
<!-- Generator: Adobe Illustrator 16.0.0, SVG Export Plug-In . SVG Version: 6.00 Build 0)  -->
<!DOCTYPE svg PUBLIC "-//W3C//DTD SVG 1.1//EN" "http://www.w3.org/Graphics/SVG/1.1/DTD/svg11.dtd">
<svg version="1.1" xmlns="http://www.w3.org/2000/svg" xmlns:xlink="http://www.w3.org/1999/xlink" x="0px" y="0px"
	 width="702.255px" height="735.454px" viewBox="0 0 702.255 735.454" enable-background="new 0 0 702.255 735.454"
	 xml:space="preserve">
<g id="Layer_01">
</g>
<g id="grid" display="none">
	<path display="inline" fill="none" stroke="#CCCCCC" stroke-width="0.25" stroke-linecap="round" stroke-linejoin="round" d="
		M113.069,144.032c-7.956,2.587-15.716,5.583-23.347,9.012"/>
	<path display="inline" fill="none" stroke="#CCCCCC" stroke-width="0.25" stroke-linecap="round" stroke-linejoin="round" d="
		M137.25,137.586c-8.188,1.717-16.226,3.859-24.182,6.446"/>
	<path display="inline" fill="none" stroke="#CCCCCC" stroke-width="0.25" stroke-linecap="round" stroke-linejoin="round" d="
		M143.874,79.426c-33.467,4.807-63.828,14.682-93.72,30.48"/>
	<path display="inline" fill="none" stroke="#CCCCCC" stroke-width="0.25" stroke-linecap="round" stroke-linejoin="round" d="
		M135.009,157.273c-10.937,2.628-21.503,6.064-31.894,10.374"/>
	<path display="inline" fill="none" stroke="#CCCCCC" stroke-width="0.25" stroke-linecap="round" stroke-linejoin="round" d="
		M148.235,41.127C104.555,46.07,62.329,59.803,24.098,81.5"/>
	<path display="inline" fill="none" stroke="#CCCCCC" stroke-width="0.25" stroke-linecap="round" stroke-linejoin="round" d="
		M146.058,60.241c-38.221,4.87-75.183,16.892-108.956,35.436"/>
	<path display="inline" fill="none" stroke="#CCCCCC" stroke-width="0.25" stroke-linecap="round" stroke-linejoin="round" d="
		M141.68,98.696c-27.767,4.506-53.312,12.814-78.416,25.503"/>
	<path display="inline" fill="none" stroke="#CCCCCC" stroke-width="0.25" stroke-linecap="round" stroke-linejoin="round" d="
		M103.115,167.647c-17.945,7.441-34.143,16.88-49.464,28.824"/>
	<path display="inline" fill="none" stroke="#CCCCCC" stroke-width="0.25" stroke-linecap="round" stroke-linejoin="round" d="
		M89.722,153.044c-17.131,7.697-32.767,17.118-47.579,28.665"/>
	<path display="inline" fill="none" stroke="#CCCCCC" stroke-width="0.25" stroke-linecap="round" stroke-linejoin="round" d="
		M24.098,81.5c-13.845,7.857-26.942,16.61-39.497,26.398"/>
	<path display="inline" fill="none" stroke="#CCCCCC" stroke-width="0.25" stroke-linecap="round" stroke-linejoin="round" d="
		M37.102,95.677C22.67,103.601,9.094,112.538-3.891,122.66"/>
	<path display="inline" fill="none" stroke="#CCCCCC" stroke-width="0.25" stroke-linecap="round" stroke-linejoin="round" d="
		M50.153,109.906c-15.045,7.952-29.115,17.053-42.535,27.516"/>
	<path display="inline" fill="none" stroke="#CCCCCC" stroke-width="0.25" stroke-linecap="round" stroke-linejoin="round" d="
		M63.264,124.199c-15.693,7.932-30.27,17.174-44.137,27.985"/>
	
		<line display="inline" fill="none" stroke="#CCCCCC" stroke-width="0.25" stroke-linecap="round" stroke-linejoin="round" x1="184.862" y1="364.779" x2="464.651" y2="133.263"/>
	
		<line display="inline" fill="none" stroke="#CCCCCC" stroke-width="0.25" stroke-linecap="round" stroke-linejoin="round" x1="184.862" y1="364.779" x2="146.72" y2="3.633"/>
	
		<line display="inline" fill="none" stroke="#CCCCCC" stroke-width="0.25" stroke-linecap="round" stroke-linejoin="round" x1="184.862" y1="364.779" x2="306.51" y2="22.605"/>
	
		<line display="inline" fill="none" stroke="#CCCCCC" stroke-width="0.25" stroke-linecap="round" stroke-linejoin="round" x1="184.862" y1="364.779" x2="-62.248" y2="48.622"/>
	<path display="inline" fill="none" stroke="#CCCCCC" stroke-width="0.25" stroke-linecap="round" stroke-linejoin="round" d="
		M150.405,22.071c-49.135,4.94-96.632,20.388-139.272,45.295"/>
	<path display="inline" fill="none" stroke="#CCCCCC" stroke-width="0.25" stroke-linecap="round" stroke-linejoin="round" d="
		M11.133,67.365c-13.283,7.76-25.907,16.311-38.041,25.77"/>
	
		<line display="inline" fill="none" stroke="#CCCCCC" stroke-width="0.25" stroke-linecap="round" stroke-linejoin="round" x1="184.862" y1="364.779" x2="528.375" y2="246.964"/>
	
		<line display="inline" fill="none" stroke="#CCCCCC" stroke-width="0.25" stroke-linecap="round" stroke-linejoin="round" x1="184.862" y1="364.779" x2="545.164" y2="410.215"/>
	<path display="inline" fill="none" stroke="#CCCCCC" stroke-width="0.25" stroke-linecap="round" stroke-linejoin="round" d="
		M183.672,727.933c99.222,0.325,194.256-39.962,263.014-111.499c68.757-71.536,105.251-168.091,100.997-267.222
		C543.43,250.08,498.8,157.006,424.167,91.622C349.534,26.239,251.398-5.76,152.569,3.063C97.984,7.936,45.21,25.1-1.797,53.268
		C-14.54,60.903-26.701,69.24-38.416,78.373"/>
	<path display="inline" fill="none" stroke="#CCCCCC" stroke-width="0.25" stroke-linecap="round" stroke-linejoin="round" d="
		M183.795,690.497c89.663,0.293,175.48-36.387,237.231-101.397c61.75-65.01,93.971-152.601,89.067-242.13
		c-4.902-89.529-46.494-173.078-114.975-230.957c-68.479-57.879-157.79-84.969-246.884-74.886"/>
	<path display="inline" fill="none" stroke="#CCCCCC" stroke-width="0.25" stroke-linecap="round" stroke-linejoin="round" d="
		M183.856,671.779c177.398,0.581,318.367-148.877,307.422-325.938c-10.943-177.061-169.244-308.022-345.22-285.6"/>
	<path display="inline" fill="none" stroke="#CCCCCC" stroke-width="0.25" stroke-linecap="round" stroke-linejoin="round" d="
		M183.917,653.061c167.492,0.549,300.191-141.27,288.528-308.356C460.781,177.618,309.666,55.611,143.874,79.426"/>
	<path display="inline" fill="none" stroke="#CCCCCC" stroke-width="0.25" stroke-linecap="round" stroke-linejoin="round" d="
		M183.733,709.215c94.442,0.31,184.868-38.173,250.123-106.446c65.255-68.272,99.614-160.345,95.038-254.676
		c-4.575-94.332-47.684-182.646-119.24-244.283c-71.556-61.637-165.282-91.188-259.25-81.739"/>
	<path display="inline" fill="none" stroke="#CCCCCC" stroke-width="0.25" stroke-linecap="round" stroke-linejoin="round" d="
		M183.979,634.342c157.592,0.517,282.018-133.68,269.611-290.784C441.184,186.455,297.237,73.451,141.68,98.696"/>
	<path display="inline" fill="none" stroke="#CCCCCC" stroke-width="0.25" stroke-linecap="round" stroke-linejoin="round" d="
		M184.286,540.752c56.906,0.186,110.39-27.156,143.562-73.394c33.171-46.239,41.936-105.664,23.525-159.509
		c-18.411-53.847-61.723-95.466-116.259-111.716c-54.536-16.25-113.565-5.125-158.445,29.863"/>
	<path display="inline" fill="none" stroke="#CCCCCC" stroke-width="0.25" stroke-linecap="round" stroke-linejoin="round" d="
		M184.224,559.471c62.959,0.207,122.131-30.045,158.832-81.202c36.7-51.157,46.396-116.902,26.028-176.477
		c-20.368-59.573-68.288-105.619-128.626-123.598c-60.337-17.979-125.645-5.67-175.299,33.039"/>
	<path display="inline" fill="none" stroke="#CCCCCC" stroke-width="0.25" stroke-linecap="round" stroke-linejoin="round" d="
		M184.163,578.188c127.952,0.419,227.51-111.073,212.669-238.162c-14.842-127.089-137.41-212.642-261.824-182.752"/>
	<path display="inline" fill="none" stroke="#CCCCCC" stroke-width="0.25" stroke-linecap="round" stroke-linejoin="round" d="
		M184.102,596.906c137.818,0.452,245.676-118.573,231.691-255.681C401.808,204.117,272.141,109.318,137.25,137.586"/>
	<path display="inline" fill="none" stroke="#CCCCCC" stroke-width="0.25" stroke-linecap="round" stroke-linejoin="round" d="
		M184.04,615.625c147.7,0.484,263.846-126.113,250.668-273.224C421.531,195.289,284.735,91.348,139.473,118.074
		c-22.106,4.067-42.756,10.783-63.026,20.498c-16.385,7.853-31.482,17.204-45.812,28.375"/>
	
		<line display="inline" fill="none" stroke="#CCCCCC" stroke-width="0.25" stroke-linecap="round" stroke-linejoin="round" x1="184.862" y1="364.779" x2="350.63" y2="687.893"/>
	
		<line display="inline" fill="none" stroke="#CCCCCC" stroke-width="0.25" stroke-linecap="round" stroke-linejoin="round" x1="184.862" y1="364.779" x2="182.207" y2="766.022"/>
	
		<line display="inline" fill="none" stroke="#CCCCCC" stroke-width="0.25" stroke-linecap="round" stroke-linejoin="round" x1="184.862" y1="364.779" x2="478.757" y2="578.105"/>
	
		<line display="inline" fill="none" stroke="#CCCCCC" stroke-width="0.25" stroke-linecap="round" stroke-linejoin="round" x1="519.336" y1="282.247" x2="573.951" y2="268.768"/>
	<path display="inline" fill="none" stroke="#CCCCCC" stroke-width="0.25" stroke-linecap="round" stroke-linejoin="round" d="
		M-51.924,65.099C13.163,13.602,95.422-17.142,184.861-17.142c210.93,0,381.922,170.992,381.922,381.922
		S395.792,746.701,184.861,746.701c-1.838,0-3.673-0.013-5.505-0.039"/>
	<path display="inline" fill="none" stroke="#CCCCCC" stroke-width="0.25" stroke-linecap="round" stroke-linejoin="round" d="
		M-62.249,48.621C5.869-4.695,91.654-36.476,184.862-36.476c221.607,0,401.255,179.648,401.255,401.256
		c0,221.606-179.648,401.254-401.255,401.254c-2.068,0-4.133-0.016-6.194-0.047"/>
</g>
<g id="text_guide" display="none">
	
		<line display="inline" fill="none" stroke="#CCCCCC" stroke-width="0.25" stroke-linecap="round" stroke-linejoin="round" x1="111.979" y1="184.244" x2="106.776" y2="171.356"/>
	
		<line display="inline" fill="none" stroke="#CCCCCC" stroke-width="0.25" stroke-linecap="round" stroke-linejoin="round" x1="207.816" y1="171.445" x2="209.456" y2="157.644"/>
	
		<line display="inline" fill="none" stroke="#CCCCCC" stroke-width="0.25" stroke-linecap="round" stroke-linejoin="round" x1="241.464" y1="130.019" x2="244.723" y2="116.508"/>
	
		<line display="inline" fill="none" stroke="#CCCCCC" stroke-width="0.25" stroke-linecap="round" stroke-linejoin="round" x1="213.333" y1="124.976" x2="214.973" y2="111.175"/>
	
		<line display="inline" fill="none" stroke="#CCCCCC" stroke-width="0.25" stroke-linecap="round" stroke-linejoin="round" x1="182.698" y1="123.29" x2="182.574" y2="109.392"/>
	
		<line display="inline" fill="none" stroke="#CCCCCC" stroke-width="0.25" stroke-linecap="round" stroke-linejoin="round" x1="125.478" y1="130.708" x2="122.06" y2="117.236"/>
	
		<line display="inline" fill="none" stroke="#CCCCCC" stroke-width="0.25" stroke-linecap="round" stroke-linejoin="round" x1="116.272" y1="94.421" x2="112.854" y2="80.949"/>
	
		<line display="inline" fill="none" stroke="#CCCCCC" stroke-width="0.25" stroke-linecap="round" stroke-linejoin="round" x1="80.447" y1="106.137" x2="75.244" y2="93.249"/>
	
		<line display="inline" fill="none" stroke="#CCCCCC" stroke-width="0.25" stroke-linecap="round" stroke-linejoin="round" x1="94.461" y1="140.852" x2="89.258" y2="127.963"/>
	
		<line display="inline" fill="none" stroke="#CCCCCC" stroke-width="0.25" stroke-linecap="round" stroke-linejoin="round" x1="184.862" y1="364.779" x2="380.561" y2="670.693"/>
	
		<line display="inline" fill="none" stroke="#CCCCCC" stroke-width="0.25" stroke-linecap="round" stroke-linejoin="round" x1="184.862" y1="364.779" x2="420.02" y2="641.515"/>
	
		<line display="inline" fill="none" stroke="#CCCCCC" stroke-width="0.25" stroke-linecap="round" stroke-linejoin="round" x1="184.862" y1="364.779" x2="219.816" y2="726.248"/>
	
		<line display="inline" fill="none" stroke="#CCCCCC" stroke-width="0.25" stroke-linecap="round" stroke-linejoin="round" x1="184.862" y1="364.779" x2="268.232" y2="718.235"/>
	
		<line display="inline" fill="none" stroke="#CCCCCC" stroke-width="0.25" stroke-linecap="round" stroke-linejoin="round" x1="184.862" y1="364.779" x2="315.125" y2="703.768"/>
	
		<line display="inline" fill="none" stroke="#CCCCCC" stroke-width="0.25" stroke-linecap="round" stroke-linejoin="round" x1="184.862" y1="364.779" x2="454.018" y2="606.237"/>
	
		<line display="inline" fill="none" stroke="#CCCCCC" stroke-width="0.25" stroke-linecap="round" stroke-linejoin="round" x1="184.862" y1="364.779" x2="502.136" y2="541.469"/>
	
		<line display="inline" fill="none" stroke="#CCCCCC" stroke-width="0.25" stroke-linecap="round" stroke-linejoin="round" x1="184.862" y1="364.779" x2="523.061" y2="497.078"/>
	
		<line display="inline" fill="none" stroke="#CCCCCC" stroke-width="0.25" stroke-linecap="round" stroke-linejoin="round" x1="184.862" y1="364.779" x2="574.88" y2="459.462"/>
	
		<line display="inline" fill="none" stroke="#CCCCCC" stroke-width="0.25" stroke-linecap="round" stroke-linejoin="round" x1="184.862" y1="364.779" x2="585.948" y2="376.511"/>
	
		<line display="inline" fill="none" stroke="#CCCCCC" stroke-width="0.25" stroke-linecap="round" stroke-linejoin="round" x1="184.862" y1="364.779" x2="583.964" y2="322.062"/>
	
		<line display="inline" fill="none" stroke="#CCCCCC" stroke-width="0.25" stroke-linecap="round" stroke-linejoin="round" x1="184.862" y1="364.779" x2="537.438" y2="277.762"/>
	
		<line display="inline" fill="none" stroke="#CCCCCC" stroke-width="0.25" stroke-linecap="round" stroke-linejoin="round" x1="184.862" y1="364.779" x2="502.01" y2="187.864"/>
	
		<line display="inline" fill="none" stroke="#CCCCCC" stroke-width="0.25" stroke-linecap="round" stroke-linejoin="round" x1="184.862" y1="364.779" x2="431.282" y2="98.024"/>
	
		<line display="inline" fill="none" stroke="#CCCCCC" stroke-width="0.25" stroke-linecap="round" stroke-linejoin="round" x1="184.862" y1="364.779" x2="393.067" y2="67.235"/>
	
		<line display="inline" fill="none" stroke="#CCCCCC" stroke-width="0.25" stroke-linecap="round" stroke-linejoin="round" x1="184.862" y1="364.779" x2="351.05" y2="41.881"/>
	
		<line display="inline" fill="none" stroke="#CCCCCC" stroke-width="0.25" stroke-linecap="round" stroke-linejoin="round" x1="184.862" y1="364.779" x2="269.983" y2="11.741"/>
	
		<line display="inline" fill="none" stroke="#CCCCCC" stroke-width="0.25" stroke-linecap="round" stroke-linejoin="round" x1="184.862" y1="364.779" x2="227.679" y2="4.157"/>
	
		<line display="inline" fill="none" stroke="#CCCCCC" stroke-width="0.25" stroke-linecap="round" stroke-linejoin="round" x1="184.862" y1="364.779" x2="181.607" y2="1.639"/>
	
		<line display="inline" fill="none" stroke="#CCCCCC" stroke-width="0.25" stroke-linecap="round" stroke-linejoin="round" x1="184.862" y1="364.779" x2="95.559" y2="12.776"/>
	
		<line display="inline" fill="none" stroke="#CCCCCC" stroke-width="0.25" stroke-linecap="round" stroke-linejoin="round" x1="184.862" y1="364.779" x2="48.915" y2="28.031"/>
	
		<line display="inline" fill="none" stroke="#CCCCCC" stroke-width="0.25" stroke-linecap="round" stroke-linejoin="round" x1="36.911" y1="106.682" x2="30.018" y2="94.614"/>
	
		<line display="inline" fill="none" stroke="#CCCCCC" stroke-width="0.25" stroke-linecap="round" stroke-linejoin="round" x1="65.095" y1="155.085" x2="58.202" y2="143.016"/>
	<path display="inline" fill="none" stroke="#CCCCCC" stroke-width="0.25" stroke-linecap="round" stroke-linejoin="round" d="
		M183.903,657.6c94.691,0.311,183.689-45.188,238.887-122.129c55.197-76.94,69.782-175.824,39.147-265.424
		C431.302,180.446,359.23,111.191,268.481,84.15S79.507,75.623,4.828,133.842"/>
	<path display="inline" fill="none" stroke="#CCCCCC" stroke-width="0.25" stroke-linecap="round" stroke-linejoin="round" d="
		M184.025,620.164c82.585,0.271,160.205-39.412,208.346-106.516c48.141-67.104,60.86-153.345,34.143-231.491
		c-26.718-78.145-89.575-138.546-168.723-162.129c-79.148-23.583-164.814-7.438-229.947,43.339"/>
</g>
<g id="grid_2" display="none">
</g>
<g id="Layer_13">
</g>
<g id="israeli">
	<circle fill="#0033CC" cx="298.813" cy="498.877" r="18.718"/>
	<line fill="#0033CC" x1="116.272" y1="94.421" x2="116.272" y2="94.421"/>
	<circle fill="#0033CC" cx="184.862" cy="364.779" r="44.923"/>
	<circle fill="#0033CC" cx="298.729" cy="498.779" r="18.718"/>
</g>
<g id="towns">
	<circle fill="#CC0066" cx="348.871" cy="428.561" r="18.718"/>
	<circle fill="#CC0066" cx="225.602" cy="535.973" r="18.718"/>
	<circle fill="#CC0066" cx="338.371" cy="278.745" r="18.718"/>
	<circle fill="#CC0066" cx="338.371" cy="278.745" r="18.718"/>
	<circle fill="#CC0066" cx="285.752" cy="220.599" r="18.718"/>
	<circle fill="#CC0066" cx="359.841" cy="346.093" r="18.718"/>
	<circle fill="#CC0066" cx="359.842" cy="346.094" r="18.718"/>
	<circle fill="#CC0066" cx="205.61" cy="190.033" r="18.718"/>
	<circle fill="#CC0066" cx="118.986" cy="201.601" r="18.718"/>
	<circle fill="#CC0066" cx="225.602" cy="535.973" r="18.718"/>
	<circle fill="#CC0066" cx="118.986" cy="201.601" r="18.718"/>
	<circle fill="#CC0066" cx="205.61" cy="190.033" r="18.718"/>
	<circle fill="#CC0066" cx="285.752" cy="220.599" r="18.718"/>
	<circle fill="#CC0066" cx="348.871" cy="428.561" r="18.718"/>
</g>
<g id="villages">
	<path fill="#FF3366" d="M578.028,381.476c-2.894-4.175-1.758-9.839,2.537-12.653c4.296-2.812,10.125-1.708,13.02,2.466
		c2.895,4.175,1.759,9.84-2.537,12.652C586.752,386.754,580.923,385.65,578.028,381.476z"/>
	<circle fill="#FF3366" cx="399.491" cy="557.245" r="9.359"/>
	<circle fill="#FF3366" cx="371.566" cy="584.406" r="9.359"/>
	<circle fill="#FF3366" cx="309.953" cy="560.32" r="9.359"/>
	<circle fill="#FF3366" cx="357.652" cy="519.788" r="9.359"/>
	<circle fill="#FF3366" cx="335.175" cy="541.669" r="9.359"/>
	<circle fill="#FF3366" cx="401.039" cy="449.345" r="9.359"/>
	<circle fill="#FF3366" cx="41.552" cy="114.809" r="9.359"/>
	<circle fill="#FF3366" cx="76.806" cy="97.322" r="9.359"/>
	<circle fill="#FF3366" cx="113.81" cy="85.253" r="9.359"/>
	<circle fill="#FF3366" cx="127.779" cy="139.779" r="9.359"/>
	<circle fill="#FF3366" cx="97.965" cy="149.53" r="9.359"/>
	<circle fill="#FF3366" cx="69.737" cy="163.211" r="9.359"/>
	<circle fill="#FF3366" cx="410.467" cy="419.426" r="9.359"/>
	<circle fill="#FF3366" cx="350.141" cy="128.58" r="9.359"/>
	<circle fill="#FF3366" cx="238.603" cy="590.602" r="9.359"/>
	<circle fill="#FF3366" cx="418.575" cy="111.811" r="9.359"/>
	<circle fill="#FF3366" cx="382.424" cy="82.65" r="9.359"/>
	<circle fill="#FF3366" cx="182.782" cy="132.649" r="9.359"/>
	<circle fill="#FF3366" cx="342.497" cy="58.469" r="9.359"/>
	<circle fill="#FF3366" cx="239.271" cy="139.117" r="9.359"/>
	<circle fill="#FF3366" cx="212.23" cy="134.27" r="9.359"/>
	<circle fill="#FF3366" cx="380.579" cy="152.939" r="9.359"/>
	<circle fill="#FF3366" cx="316.787" cy="108.697" r="9.359"/>
	<circle fill="#FF3366" cx="342.374" cy="194.269" r="9.359"/>
	<circle fill="#FF3366" cx="465.201" cy="432.9" r="9.359"/>
	<circle fill="#FF3366" cx="291.089" cy="158.383" r="9.359"/>
	<circle fill="#FF3366" cx="453.472" cy="469.802" r="9.359"/>
	<circle fill="#FF3366" cx="418.421" cy="371.438" r="9.359"/>
	<circle fill="#FF3366" cx="317.946" cy="174.589" r="9.359"/>
	<path fill="#FF3366" d="M465.204,377.561c-2.896-4.175-1.759-9.84,2.537-12.653c4.296-2.812,10.124-1.709,13.019,2.466
		s1.759,9.839-2.537,12.652C473.927,382.839,468.099,381.735,465.204,377.561z"/>
	<circle fill="#FF3366" cx="268.126" cy="581.461" r="9.359"/>
	<path fill="#FF3366" d="M521.172,379.934c-2.895-4.175-1.759-9.839,2.536-12.652c4.296-2.813,10.124-1.709,13.02,2.466
		c2.895,4.174,1.759,9.839-2.537,12.651C529.895,385.212,524.065,384.107,521.172,379.934z"/>
	<circle fill="#FF3366" cx="207.204" cy="595.83" r="9.359"/>
	<circle fill="#FF3366" cx="387.583" cy="251.695" r="9.359"/>
	<circle fill="#FF3366" cx="415.442" cy="340.156" r="9.359"/>
	<circle fill="#FF3366" cx="573.676" cy="268.768" r="9.359"/>
	<circle fill="#FF3366" cx="471.386" cy="334.146" r="9.359"/>
	<circle fill="#FF3366" cx="527.497" cy="328.376" r="9.359"/>
	<circle fill="#FF3366" cx="583.858" cy="322.061" r="9.359"/>
	<circle fill="#FF3366" cx="387.663" cy="477.719" r="9.359"/>
	<circle fill="#FF3366" cx="408.286" cy="309.637" r="9.359"/>
	<circle fill="#FF3366" cx="464.774" cy="295.811" r="9.359"/>
	<circle fill="#FF3366" cx="519.281" cy="282.247" r="9.359"/>
	<circle fill="#FF3366" cx="436.805" cy="504.972" r="9.359"/>
	<circle fill="#FF3366" cx="212.677" cy="651.745" r="9.359"/>
	<circle fill="#FF3366" cx="308.516" cy="686.054" r="9.359"/>
	<circle fill="#FF3366" cx="574.88" cy="459.462" r="9.359"/>
	<circle fill="#FF3366" cx="485.763" cy="532.361" r="9.359"/>
	<circle fill="#FF3366" cx="288.269" cy="633.878" r="9.359"/>
	<circle fill="#FF3366" cx="251.138" cy="645.455" r="9.359"/>
	<circle fill="#FF3366" cx="505.487" cy="490.299" r="9.359"/>
	<circle fill="#FF3366" cx="519.495" cy="445.866" r="9.36"/>
</g>
<g id="recognition_2">
	<circle fill="#FFCC33" cx="185.122" cy="365.725" r="18.399"/>
	<circle fill="#FFCC33" cx="225.651" cy="536.314" r="9.2"/>
	<circle fill="#FFCC33" cx="298.813" cy="498.878" r="9.2"/>
	<circle fill="#FFCC33" cx="349.203" cy="428.561" r="9.2"/>
	<circle fill="#FFCC33" cx="359.842" cy="346.094" r="9.2"/>
	<circle fill="#FFCC33" cx="338.371" cy="278.746" r="9.2"/>
	<circle fill="#FFCC33" cx="285.752" cy="220.599" r="9.2"/>
	<circle fill="#FFCC33" cx="204.987" cy="190.033" r="9.2"/>
	<circle fill="#FFCC33" cx="119.062" cy="201.6" r="9.2"/>
</g>
<g id="no_recognition">
	<circle fill="#FFFFFF" cx="225.651" cy="536.313" r="3.293"/>
	<circle fill="#FFFFFF" cx="298.813" cy="498.877" r="3.293"/>
	<circle fill="#FFFFFF" cx="349.203" cy="428.56" r="3.293"/>
	<circle fill="#FFFFFF" cx="359.842" cy="346.093" r="3.293"/>
	<circle fill="#FFFFFF" cx="338.371" cy="278.744" r="3.293"/>
	<circle fill="#FFFFFF" cx="285.752" cy="220.598" r="3.293"/>
	<circle fill="#FFFFFF" cx="204.987" cy="190.032" r="3.293"/>
	<circle fill="#FFFFFF" cx="119.062" cy="201.599" r="3.293"/>
	<circle fill="#FFFFFF" cx="335.175" cy="541.669" r="2.34"/>
	<circle fill="#FFFFFF" cx="357.651" cy="519.787" r="2.34"/>
	<circle fill="#FFFFFF" cx="309.953" cy="560.319" r="2.34"/>
	<circle fill="#FFFFFF" cx="399.491" cy="557.245" r="2.34"/>
	<circle fill="#FFFFFF" cx="371.566" cy="584.406" r="2.34"/>
	<circle fill="#FFFFFF" cx="401.039" cy="449.345" r="2.34"/>
	<circle fill="#FFFFFF" cx="410.466" cy="419.427" r="2.34"/>
	<circle fill="#FFFFFF" cx="465.202" cy="432.9" r="2.339"/>
	<circle fill="#FFFFFF" cx="453.473" cy="469.802" r="2.34"/>
	<circle fill="#FFFFFF" cx="436.805" cy="504.971" r="2.34"/>
	<circle fill="#FFFFFF" cx="519.495" cy="445.866" r="2.34"/>
	<circle fill="#FFFFFF" cx="505.487" cy="490.299" r="2.34"/>
	<circle fill="#FFFFFF" cx="485.764" cy="532.361" r="2.34"/>
	<circle fill="#FFFFFF" cx="574.88" cy="459.462" r="2.339"/>
	<circle fill="#FFFFFF" cx="387.664" cy="477.719" r="2.34"/>
	<circle fill="#FFFFFF" cx="238.602" cy="590.601" r="2.34"/>
	<circle fill="#FFFFFF" cx="268.126" cy="581.46" r="2.34"/>
	<circle fill="#FFFFFF" cx="207.204" cy="595.83" r="2.34"/>
	<circle fill="#FFFFFF" cx="212.677" cy="651.744" r="2.34"/>
	<circle fill="#FFFFFF" cx="251.138" cy="645.455" r="2.34"/>
	<circle fill="#FFFFFF" cx="288.269" cy="633.878" r="2.34"/>
	<circle fill="#FFFFFF" cx="583.857" cy="322.061" r="2.34"/>
	<circle fill="#FFFFFF" cx="573.677" cy="268.768" r="2.34"/>
	<circle fill="#FFFFFF" cx="308.516" cy="686.054" r="2.34"/>
	<circle fill="#FFFFFF" cx="387.583" cy="251.695" r="2.34"/>
	<circle fill="#FFFFFF" cx="519.281" cy="282.247" r="2.34"/>
	<circle fill="#FFFFFF" cx="464.774" cy="295.811" r="2.34"/>
	<circle fill="#FFFFFF" cx="408.285" cy="309.638" r="2.34"/>
	<circle fill="#FFFFFF" cx="527.497" cy="328.375" r="2.34"/>
	<circle fill="#FFFFFF" cx="471.386" cy="334.146" r="2.34"/>
	<circle fill="#FFFFFF" cx="415.442" cy="340.156" r="2.34"/>
	<path fill="#FFFFFF" d="M583.862,377.655c-0.724-1.043-0.439-2.46,0.634-3.163c1.074-0.704,2.532-0.428,3.256,0.616
		c0.723,1.044,0.439,2.46-0.636,3.163C586.043,378.976,584.586,378.699,583.862,377.655z"/>
	<path fill="#FFFFFF" d="M527.006,376.113c-0.724-1.043-0.44-2.46,0.633-3.163c1.074-0.703,2.531-0.427,3.256,0.616
		c0.724,1.043,0.438,2.459-0.635,3.163C529.186,377.433,527.729,377.157,527.006,376.113z"/>
	<path fill="#FFFFFF" d="M471.037,373.74c-0.724-1.043-0.439-2.459,0.634-3.163c1.074-0.703,2.531-0.427,3.255,0.617
		c0.724,1.044,0.44,2.46-0.635,3.164C473.218,375.061,471.761,374.785,471.037,373.74z"/>
	<circle fill="#FFFFFF" cx="418.421" cy="371.438" r="2.34"/>
	<circle fill="#FFFFFF" cx="317.946" cy="174.59" r="2.34"/>
	<circle fill="#FFFFFF" cx="291.089" cy="158.383" r="2.34"/>
	<circle fill="#FFFFFF" cx="342.374" cy="194.27" r="2.34"/>
	<circle fill="#FFFFFF" cx="316.787" cy="108.697" r="2.34"/>
	<circle fill="#FFFFFF" cx="380.579" cy="152.939" r="2.34"/>
	<circle fill="#FFFFFF" cx="342.498" cy="58.469" r="2.34"/>
	<circle fill="#FFFFFF" cx="382.424" cy="82.65" r="2.34"/>
	<circle fill="#FFFFFF" cx="418.574" cy="111.811" r="2.34"/>
	<circle fill="#FFFFFF" cx="350.141" cy="128.581" r="2.34"/>
	<circle fill="#FFFFFF" cx="69.737" cy="163.211" r="2.34"/>
	<circle fill="#FFFFFF" cx="97.964" cy="149.53" r="2.34"/>
	<circle fill="#FFFFFF" cx="127.78" cy="139.779" r="2.34"/>
	<circle fill="#FFFFFF" cx="113.81" cy="85.253" r="2.34"/>
	<circle fill="#FFFFFF" cx="76.806" cy="97.322" r="2.34"/>
	<circle fill="#FFFFFF" cx="41.553" cy="114.809" r="2.34"/>
	<circle fill="#FFFFFF" cx="185.122" cy="365.725" r="6.234"/>
	<circle fill="#FFFFFF" cx="212.23" cy="134.27" r="2.34"/>
	<circle fill="#FFFFFF" cx="239.271" cy="139.118" r="2.339"/>
	<circle fill="#FFFFFF" cx="182.782" cy="132.649" r="2.34"/>
</g>
<g id="recognition">
</g>
<g id="for_scale">
</g>
<g id="names">
	<g>
		<g>
			
				<text transform="matrix(0.1015 0.9948 -0.9948 0.1015 215.6108 661.4834)" fill="#666666" font-family="'Inconsolata-Bold'" font-size="6">Al Araqib</text>
		</g>
	</g>
	<g>
		<g>
			
				<text transform="matrix(0.2572 0.9664 -0.9664 0.2572 255.5283 655.397)" fill="#666666" font-family="'Inconsolata-Bold'" font-size="6">Al Araqib</text>
		</g>
	</g>
	<g>
		<g>
			
				<text transform="matrix(0.2572 0.9664 -0.9664 0.2572 242.5732 600.6323)" fill="#666666" font-family="'Inconsolata-Bold'" font-size="6">Al Araqib</text>
		</g>
	</g>
	<g>
		<g>
			
				<text transform="matrix(0.2339 0.9723 -0.9723 0.2339 210.1367 462.7251)" fill="#666666" font-family="'Inconsolata-Bold'" font-size="8">Šgīb as-Salām</text>
		</g>
	</g>
	<g>
		<g>
			
				<text transform="matrix(0.364 0.9314 -0.9314 0.364 313.9629 694.5601)" fill="#666666" font-family="'Inconsolata-Bold'" font-size="6">Al Araqib</text>
		</g>
	</g>
	<g>
		<g>
			
				<text transform="matrix(0.364 0.9314 -0.9314 0.364 293.7153 642.3833)" fill="#666666" font-family="'Inconsolata-Bold'" font-size="6">Al Araqib</text>
		</g>
	</g>
	<g>
		<g>
			
				<text transform="matrix(0.5509 0.8346 -0.8346 0.5509 317.0366 567.6387)" fill="#666666" font-family="'Inconsolata-Bold'" font-size="6">Al Araqib</text>
		</g>
	</g>
	<g>
		<g>
			
				<text transform="matrix(0.6478 0.7618 -0.7618 0.6478 379.3574 590.4272)" fill="#666666" font-family="'Inconsolata-Bold'" font-size="6">Al Araqib</text>
		</g>
	</g>
	<g>
		<g>
			
				<text transform="matrix(0.6478 0.7618 -0.7618 0.6478 342.938 547.7124)" fill="#666666" font-family="'Inconsolata-Bold'" font-size="6">Al Araqib</text>
		</g>
	</g>
	<g>
		<g>
			
				<text transform="matrix(0.748 0.6637 -0.6637 0.748 408.0981 562.3433)" fill="#666666" font-family="'Inconsolata-Bold'" font-size="6">Al Araqib</text>
		</g>
	</g>
	<g>
		<g>
			
				<text transform="matrix(0.876 0.4823 -0.4823 0.876 495.4653 535.6816)" fill="#666666" font-family="'Inconsolata-Bold'" font-size="6">Al Araqib</text>
		</g>
	</g>
	<g>
		<g>
			
				<text transform="matrix(0.876 0.4823 -0.4823 0.876 446.5073 508.2925)" fill="#666666" font-family="'Inconsolata-Bold'" font-size="6">Al Araqib</text>
		</g>
	</g>
	<g>
		<g>
			
				<text transform="matrix(0.9309 0.3653 -0.3653 0.9309 515.6528 492.4399)" fill="#666666" font-family="'Inconsolata-Bold'" font-size="6">Al Araqib</text>
		</g>
	</g>
	<g>
		<g>
			
				<text transform="matrix(0.9309 0.3653 -0.3653 0.9309 463.6387 471.9434)" fill="#666666" font-family="'Inconsolata-Bold'" font-size="6">Al Araqib</text>
		</g>
	</g>
	<g>
		<g>
			
				<text transform="matrix(0.9309 0.3653 -0.3653 0.9309 411.0859 451.7778)" fill="#666666" font-family="'Inconsolata-Bold'" font-size="6">Al Araqib</text>
		</g>
	</g>
	<g>
		<g>
			
				<text transform="matrix(0.9728 0.2316 -0.2316 0.9728 585.3433 459.8135)" fill="#666666" font-family="'Inconsolata-Bold'" font-size="6">Al Araqib</text>
		</g>
	</g>
	<g>
		<g>
			
				<text transform="matrix(0.9728 0.2316 -0.2316 0.9728 529.957 446.7744)" fill="#666666" font-family="'Inconsolata-Bold'" font-size="6">Al Araqib</text>
		</g>
	</g>
	<g>
		<g>
			
				<text transform="matrix(0.9728 0.2316 -0.2316 0.9728 475.6636 433.8081)" fill="#666666" font-family="'Inconsolata-Bold'" font-size="6">Al Araqib</text>
		</g>
	</g>
	<g>
		<g>
			
				<text transform="matrix(0.9708 -0.2399 0.2399 0.9708 583.9644 265.5776)" fill="#666666" font-family="'Inconsolata-Bold'" font-size="6">Al Araqib</text>
		</g>
	</g>
	<g>
		<g>
			
				<text transform="matrix(0.9708 -0.2399 0.2399 0.9708 529.5688 279.0566)" fill="#666666" font-family="'Inconsolata-Bold'" font-size="6">Al Araqib</text>
		</g>
	</g>
	<g>
		<g>
			
				<text transform="matrix(0.9708 -0.2399 0.2399 0.9708 475.062 292.6196)" fill="#666666" font-family="'Inconsolata-Bold'" font-size="6">Al Araqib</text>
		</g>
	</g>
	<g>
		<g>
			
				<text transform="matrix(0.9931 -0.1176 0.1176 0.9931 594.2866 320.4697)" fill="#666666" font-family="'Inconsolata-Bold'" font-size="6">Al Araqib</text>
		</g>
	</g>
	<g>
		<g>
			
				<text transform="matrix(0.9931 -0.1176 0.1176 0.9931 537.9263 326.7842)" fill="#666666" font-family="'Inconsolata-Bold'" font-size="6">Al Araqib</text>
		</g>
	</g>
	<g>
		<g>
			
				<text transform="matrix(0.9931 -0.1176 0.1176 0.9931 481.8154 332.5542)" fill="#666666" font-family="'Inconsolata-Bold'" font-size="6">Al Araqib</text>
		</g>
	</g>
	<g>
		<g>
			
				<text transform="matrix(0.9931 -0.1176 0.1176 0.9931 425.8716 338.5649)" fill="#666666" font-family="'Inconsolata-Bold'" font-size="6">Al Araqib</text>
		</g>
	</g>
	<g>
		<g>
			
				<text transform="matrix(0.364 0.9314 -0.9314 0.364 273.5732 589.9663)" fill="#666666" font-family="'Inconsolata-Bold'" font-size="6">Al Araqib</text>
		</g>
	</g>
	<g>
		<g>
			
				<text transform="matrix(0.1015 0.9948 -0.9948 0.1015 210.1372 605.5703)" fill="#666666" font-family="'Inconsolata-Bold'" font-size="6">Al Araqib</text>
		</g>
	</g>
	<g>
		<g>
			
				<text transform="matrix(0.6478 0.7618 -0.7618 0.6478 268.2319 459.4624)" fill="#666666" font-family="'Inconsolata-Bold'" font-size="8">Yeroham</text>
		</g>
	</g>
	<g>
		<g>
			
				<text transform="matrix(0.748 0.6637 -0.6637 0.748 366.2588 524.8857)" fill="#666666" font-family="'Inconsolata-Bold'" font-size="6">Al Araqib</text>
		</g>
	</g>
	<g>
		<g>
			
				<text transform="matrix(0.876 0.4823 -0.4823 0.876 397.3652 481.0396)" fill="#666666" font-family="'Inconsolata-Bold'" font-size="6">Al Araqib</text>
		</g>
	</g>
	<g>
		<g>
			<text transform="matrix(0.9309 0.3653 -0.3653 0.9309 298.0615 405.938)"><tspan x="0" y="0" fill="#666666" font-family="'Inconsolata-Bold'" font-size="8">ʿArʿarah </tspan><tspan x="0" y="9.6" fill="#666666" font-family="'Inconsolata-Bold'" font-size="8">an-Nagab</tspan></text>
		</g>
	</g>
	<g>
		<g>
			
				<text transform="matrix(0.9728 0.2316 -0.2316 0.9728 420.9282 420.335)" fill="#666666" font-family="'Inconsolata-Bold'" font-size="6">Al Araqib</text>
		</g>
	</g>
	<g>
		<g>
			
				<text transform="matrix(0.9996 0.0285 -0.0285 0.9996 428.9932 371.103)" fill="#666666" font-family="'Inconsolata-Bold'" font-size="6">Al Araqib</text>
		</g>
	</g>
	<g>
		<g>
			
				<text transform="matrix(0.9996 0.0285 -0.0285 0.9996 483.4932 372.2661)" fill="#666666" font-family="'Inconsolata-Bold'" font-size="6">Al Araqib</text>
		</g>
	</g>
	<g>
		<g>
			
				<text transform="matrix(0.9996 0.0285 -0.0285 0.9996 539.9932 374)" fill="#666666" font-family="'Inconsolata-Bold'" font-size="6">Al Araqib</text>
		</g>
	</g>
	<g>
		<g>
			
				<text transform="matrix(0.9996 0.0285 -0.0285 0.9996 597.2432 375.1294)" fill="#666666" font-family="'Inconsolata-Bold'" font-size="6">Al Araqib</text>
		</g>
	</g>
	<g>
		<g>
			
				<text transform="matrix(0.9943 -0.1062 0.1062 0.9943 313.9629 349.3862)" fill="#666666" font-family="'Inconsolata-Bold'" font-size="8">Ksīfih</text>
		</g>
	</g>
	<g>
		<g>
			
				<text transform="matrix(0.9708 -0.2399 0.2399 0.9708 418.5742 306.4473)" fill="#666666" font-family="'Inconsolata-Bold'" font-size="6">Al Araqib</text>
		</g>
	</g>
	<g>
		<g>
			<text transform="matrix(0.8732 -0.4874 0.4874 0.8732 397.7251 245.314)"><tspan x="0" y="0" fill="#666666" font-family="'Inconsolata-Bold'" font-size="6">Bīr al-Ḥamām</tspan><tspan x="36.001" y="0" fill="#666666" font-family="'Inconsolata-Bold'" font-size="6" letter-spacing="4">	</tspan></text>
		</g>
	</g>
	<g>
		<g>
			
				<text transform="matrix(0.8732 -0.4874 0.4874 0.8732 280.1289 309.6377)" fill="#666666" font-family="'Inconsolata-Bold'" font-size="8">Tal as-Sabaʿ</text>
		</g>
	</g>
	<g>
		<g>
			
				<text transform="matrix(0.6783 -0.7347 0.7347 0.6783 425.4033 103.4863)" fill="#666666" font-family="'Inconsolata-Bold'" font-size="6">ʿAtīr</text>
		</g>
	</g>
	<g>
		<g>
			
				<text transform="matrix(0.6783 -0.7347 0.7347 0.6783 387.4082 144.6143)" fill="#666666" font-family="'Inconsolata-Bold'" font-size="6">Al Araqib</text>
		</g>
	</g>
	<g>
		<g>
			
				<text transform="matrix(0.6783 -0.7347 0.7347 0.6783 349.2031 185.9448)" fill="#666666" font-family="'Inconsolata-Bold'" font-size="6">Saʿwah</text>
		</g>
	</g>
	<g>
		<g>
			
				<text transform="matrix(0.5709 -0.821 0.821 0.5709 388.064 73.4795)" fill="#666666" font-family="'Inconsolata-Bold'" font-size="6">al-Ġarrah</text>
		</g>
	</g>
	<g>
		<g>
			
				<text transform="matrix(0.5709 -0.821 0.821 0.5709 323.5869 165.4194)" fill="#666666" font-family="'Inconsolata-Bold'" font-size="6">al-Grīn</text>
		</g>
	</g>
	<g>
		<g>
			
				<text transform="matrix(-0.4985 -0.8669 0.8669 -0.4985 63.8535 154.1938)" fill="#666666" font-family="'Inconsolata-Bold'" font-size="6">al-ʿArāgīb</text>
		</g>
	</g>
	<g>
		<g>
			<text transform="matrix(0.5606 -0.8281 0.8281 0.5606 354.2236 118.1631)"><tspan x="0" y="0" fill="#666666" font-family="'Inconsolata-Bold'" font-size="6">Khirbit</tspan><tspan x="0" y="7.2" fill="#666666" font-family="'Inconsolata-Bold'" font-size="6">al-Watan</tspan></text>
		</g>
	</g>
	<g>
		<g>
			
				<text transform="matrix(-0.4985 -0.8669 0.8669 -0.4985 35.6699 105.792)" fill="#666666" font-family="'Inconsolata-Bold'" font-size="6">Ẓḥayyih</text>
		</g>
	</g>
	<g>
		<g>
			
				<text transform="matrix(0.5709 -0.821 0.821 0.5709 259.5913 254.0352)" fill="#666666" font-family="'Inconsolata-Bold'" font-size="8">Ḥūrah</text>
		</g>
	</g>
	<g>
		<g>
			<text transform="matrix(-0.377 -0.9262 0.9262 -0.377 91.8599 139.801)"><tspan x="0" y="0" fill="#666666" font-family="'Inconsolata-Bold'" font-size="6">Tarābīn </tspan><tspan x="0" y="7.2" fill="#666666" font-family="'Inconsolata-Bold'" font-size="6">aṣ-Ṣāniʿ</tspan></text>
		</g>
	</g>
	<g>
		<g>
			
				<text transform="matrix(-0.377 -0.9262 0.9262 -0.377 72.1924 87.594)" fill="#666666" font-family="'Inconsolata-Bold'" font-size="6">Umm Nmīlah</text>
		</g>
	</g>
	<g>
		<g>
			
				<text transform="matrix(-0.2487 -0.9686 0.9686 -0.2487 124.5195 129.5178)" fill="#666666" font-family="'Inconsolata-Bold'" font-size="6">al-Bāṭil</text>
		</g>
	</g>
	<g>
		<g>
			<text transform="matrix(-0.2487 -0.9686 0.9686 -0.2487 109.7163 74.9922)"><tspan x="0" y="0" fill="#666666" font-family="'Inconsolata-Bold'" font-size="6">Khirbit</tspan><tspan x="0" y="7.2" fill="#666666" font-family="'Inconsolata-Bold'" font-size="6">Zabbālih</tspan></text>
		</g>
	</g>
	<g>
		<g>
			
				<text transform="matrix(-0.377 -0.9262 0.9262 -0.377 135.0088 243.9644)" fill="#666666" font-family="'Inconsolata-Bold'" font-size="8">Rahaṭ</text>
		</g>
	</g>
	<g>
		<g>
			
				<text transform="matrix(0.455 -0.8905 0.8905 0.455 346.8496 48.6218)" fill="#666666" font-family="'Inconsolata-Bold'" font-size="6">al-Mkīmin</text>
		</g>
	</g>
	<g>
		<g>
			<text transform="matrix(1 -0.002 0.002 1 72.1919 369.3618)" fill="#666666" font-family="'Inconsolata-Bold'" font-size="10">Be&apos;er Sheva</text>
		</g>
	</g>
	<g>
		<g>
			
				<text transform="matrix(0.455 -0.8905 0.8905 0.455 321.1392 98.8494)" fill="#666666" font-family="'Inconsolata-Bold'" font-size="6">Umm Batīn</text>
		</g>
	</g>
	<g>
		<g>
			
				<text transform="matrix(0.455 -0.8905 0.8905 0.455 295.4414 148.5361)" fill="#666666" font-family="'Inconsolata-Bold'" font-size="6">as-Sayyid</text>
		</g>
	</g>
	<g>
		<g>
			
				<text transform="matrix(0.1153 -0.9933 0.9933 0.1153 195.7876 256.0352)" fill="#666666" font-family="'Inconsolata-Bold'" font-size="8">al-Lagiyyih</text>
		</g>
	</g>
	<g>
		<g>
			
				<text transform="matrix(-0.0186 -0.9998 0.9998 -0.0186 182.2065 121.8911)" fill="#666666" font-family="'Inconsolata-Bold'" font-size="6">ʿAwajān</text>
		</g>
	</g>
	<g>
		<g>
			
				<text transform="matrix(0.2316 -0.9728 0.9728 0.2316 241.6113 127.354)" fill="#666666" font-family="'Inconsolata-Bold'" font-size="6">al-Msāʿadiyyah</text>
		</g>
	</g>
	<g>
		<g>
			<text transform="matrix(0.1153 -0.9933 0.9933 0.1153 211.3872 122.5815)"><tspan x="0" y="0" fill="#666666" font-family="'Inconsolata-Bold'" font-size="6">Ṭwayyil Abu</tspan><tspan x="0" y="7.2" fill="#666666" font-family="'Inconsolata-Bold'" font-size="6">Jarwal</tspan></text>
		</g>
	</g>
</g>
<g id="Layer_1">
</g>
<g id="Layer_2">
</g>
<g id="Layer_3">
</g>
</svg>
